<svg xmlns="http://www.w3.org/2000/svg" viewBox="0 0 352 216" role="img" aria-label="STARDEW">
  <g fill="none" stroke-linecap="round" stroke-linejoin="round">
    <path d="M 122 64 L 153 80 L 122 96 L 91 80 Z" stroke="#94a3b8" stroke-opacity="0.5" stroke-width="5"/>
    <path d="M 184 80 L 215 96 L 184 112 L 153 96 Z" stroke="#2563eb" stroke-opacity="0.7" stroke-width="5"/>
    <path d="M 246 96 L 277 112 L 246 128 L 215 112 Z" stroke="#94a3b8" stroke-opacity="0.5" stroke-width="5"/>
    <path d="M 60 80 L 91 96 L 60 112 L 29 96 Z" stroke="#94a3b8" stroke-opacity="0.5" stroke-width="5"/>
    <path d="M 122 96 L 153 112 L 122 128 L 91 112 Z" stroke="#94a3b8" stroke-opacity="0.5" stroke-width="5"/>
    <path d="M 184 112 L 215 128 L 184 144 L 153 128 Z" stroke="#94a3b8" stroke-opacity="0.5" stroke-width="5"/>
    <path d="M 122 62 v -26" stroke="#2563eb" stroke-opacity="0.8" stroke-width="5"/>
    <path d="M 122 44 q -18 -4 -18 -20 q 18 0 18 20 Z" fill="#2563eb" fill-opacity="0.5" stroke="none"/>
    <path d="M 122 50 q 18 -4 18 -20 q -18 0 -18 20 Z" fill="#2563eb" fill-opacity="0.7" stroke="none"/>
  </g>
  <text x="176.0" y="192" text-anchor="middle" font-family="-apple-system, BlinkMacSystemFont, 'Segoe UI', Roboto, Helvetica, Arial, sans-serif" font-size="19" font-weight="600" letter-spacing="3.4" fill="#94a3b8" opacity="0.75">STARDEW</text>
</svg>
